<svg width="160" height="190" viewBox="48 22 160 190" fill="none" xmlns="http://www.w3.org/2000/svg">
<path d="M192.594 184.867C191.726 194.04 179.455 197.963 172.509 191.329C168.225 187.233 161.222 186.886 156.533 190.579L143.741 200.559C138.589 204.597 130.775 203.732 126.781 198.655L120.125 190.232C115.957 184.983 107.738 184.29 102.644 188.79L84.2368 205.001C82.0374 206.905 79.1433 208.001 76.1334 208.001H75.5544C69.6504 208.001 64.7303 203.963 63.9779 198.597C59.5209 166.233 58.479 125.504 60.2154 88.813C60.7364 78.4289 63.9779 68.7371 69.361 60.3142C69.8241 59.5643 70.345 58.8143 70.866 58.0644C77.349 48.8338 86.4945 41.2764 97.2029 36.3727C100.676 34.0082 106.464 32.8554 106.464 32.8554C106.464 32.8554 112.542 28.2397 133.09 28.2388C148.14 28.2388 147.851 30.2568 160.006 36.3727C179.976 49.0078 178.818 52.6413 180.728 53.6222C186.227 60.0833 190.395 67.5831 192.71 75.7751C192.999 76.7559 193.231 77.7943 193.52 78.7749C194.273 82.1787 194.794 85.6401 194.968 89.217C196.183 118.812 195.604 153.253 192.594 184.867Z" fill="#9A99EA"/>
<path d="M124.408 76.408C124.408 90.7727 115.841 102.368 105.307 102.368C102.875 102.368 100.56 101.734 98.4185 100.638C108.953 100.58 117.462 89.3881 117.462 75.5425C117.462 63.2545 110.747 53.0433 101.834 50.8512C102.933 50.5628 104.091 50.4473 105.307 50.4473C115.841 50.4473 124.408 62.1008 124.408 76.408Z" fill="#9A99EA"/>
<path d="M117.462 75.5403C117.462 89.386 108.953 100.578 98.4182 100.636C91.2407 96.8858 86.2048 87.4245 86.2048 76.4058C86.2048 63.6561 92.9193 53.099 101.833 50.8491C110.747 53.0412 117.462 63.2524 117.462 75.5403Z" fill="#11151A"/>
<path d="M173.551 74.9685C173.551 87.5448 166.027 97.756 156.765 97.756C154.855 97.756 153.003 97.2945 151.324 96.5445C159.891 95.5637 166.605 86.4487 166.605 75.2569C166.605 63.6611 159.37 54.2577 150.34 53.9115C152.308 52.7575 154.508 52.1807 156.765 52.1807C166.027 52.1807 173.551 62.3918 173.551 74.9685Z" fill="#9A99EA"/>
<path d="M166.603 75.2551C166.603 86.3891 159.889 95.5619 151.322 96.5427C144.723 93.4851 140.035 85.0045 140.035 74.9664C140.035 65.5054 144.318 57.371 150.338 53.9097C159.368 54.2556 166.603 63.7169 166.603 75.2551Z" fill="#11151A"/>
<path d="M89.5762 100.305C90.6642 97.3095 86.9164 93.2102 81.2054 91.1497C75.4941 89.0891 69.9822 89.8471 68.894 92.843C67.8058 95.8389 71.5534 99.9379 77.2647 101.999C82.9758 104.059 88.4879 103.301 89.5762 100.305Z" fill="#8886D9"/>
<path d="M179.048 103.206C184.759 101.146 188.507 97.0468 187.419 94.0509C186.331 91.055 180.819 90.2965 175.108 92.3568C169.396 94.4172 165.648 98.516 166.736 101.512C167.824 104.508 173.336 105.266 179.048 103.206Z" fill="#8886D9"/>
<path d="M52.02 75.5147L57.0817 77.053C57.0078 77.9391 56.9453 78.8284 56.9453 79.7332C56.9453 97.4634 71.4192 111.889 89.2098 111.889C107 111.889 121.474 97.4634 121.474 79.7332C121.474 75.4276 120.607 71.324 119.06 67.5675C121.713 65.8959 124.784 64.9869 128 64.9869C131.215 64.9869 134.286 65.8957 136.941 67.5675C135.393 71.3238 134.526 75.4276 134.526 79.7332C134.526 97.4634 148.999 111.889 166.79 111.889C184.581 111.889 199.055 97.4634 199.055 79.7332C199.055 78.8284 198.993 77.9389 198.919 77.0528L203.98 75.5147C205.223 75.1369 205.924 73.8269 205.545 72.5879C205.166 71.3478 203.848 70.6482 202.608 71.0284L198.17 72.3772C194.819 58.1849 182.038 47.5762 166.79 47.5762C154.998 47.5762 144.692 53.9345 139.064 63.3722C135.754 61.3823 131.965 60.2968 128 60.2968C124.035 60.2968 120.246 61.3821 116.936 63.3719C111.308 53.9343 101.002 47.5762 89.2098 47.5762C73.962 47.5762 61.1812 58.1846 57.8304 72.3772L53.3918 71.0284C52.1453 70.6471 50.8332 71.3478 50.4552 72.5879C50.0761 73.8269 50.7769 75.1369 52.02 75.5147ZM140.886 70.4504C141.101 70.5128 141.318 70.5773 141.54 70.5773C142.142 70.5773 142.744 70.3482 143.203 69.8902C144.122 68.9741 144.122 67.4901 143.203 66.574C143.081 66.4519 142.946 66.3472 142.821 66.2285C147.562 57.905 156.521 52.2663 166.79 52.2663C181.986 52.2663 194.349 64.5885 194.349 79.7332C194.349 94.8779 181.986 107.199 166.79 107.199C151.595 107.199 139.232 94.8779 139.232 79.7332C139.232 76.4718 139.835 73.3552 140.886 70.4504ZM89.2098 52.2663C99.479 52.2663 108.439 57.905 113.179 66.2285C113.054 66.3472 112.919 66.4519 112.797 66.574C111.878 67.4901 111.878 68.9752 112.797 69.8902C113.426 70.5172 114.316 70.682 115.114 70.4504C116.165 73.3552 116.769 76.4718 116.769 79.7332C116.769 94.8779 104.405 107.199 89.2098 107.199C74.0144 107.199 61.6512 94.8779 61.6512 79.7332C61.6512 64.5885 74.0144 52.2663 89.2098 52.2663Z" fill="#D4D4D7"/>
</svg>
